inDegrees=yes
name=ik_S51_A01_T02
DataType=double
version=3
OpenSimVersion=4.3-2021-08-27-4bc7ad9
endheader
time	pelvis_tilt	pelvis_list	pelvis_rotation	pelvis_tx	pelvis_ty	pelvis_tz	hip_flexion_r	hip_adduction_r	hip_rotation_r	knee_angle_r	knee_angle_r_beta	ankle_angle_r	subtalar_angle_r	mtp_angle_r	hip_flexion_l	hip_adduction_l	hip_rotation_l	knee_angle_l	knee_angle_l_beta	ankle_angle_l	subtalar_angle_l	mtp_angle_l	lumbar_extension	lumbar_bending	lumbar_rotation	arm_flex_r	arm_add_r	arm_rot_r	elbow_flex_r	pro_sup_r	wrist_flex_r	wrist_dev_r	arm_flex_l	arm_add_l	arm_rot_l	elbow_flex_l	pro_sup_l	wrist_flex_l	wrist_dev_l
28.49999999999948	-2.681134124333806	-2.997062843106488	-83.89942073881552	0	0.9399999999999999	0	12.65368047283026	-2.631311885445094	-12.75920402356105	7.107302516895365	0.124045829855104	0	0	0	3.009741455570714	-10.56664617485026	-3.845162890963989	47.57748311038047	0.8303837300881319	0	0	0	0	0	0	43.42780411694328	-43.42780411694327	4.985138095019302	84.79045567528847	85.01486217870472	0	0	43.42780411694328	-43.42780411694327	4.985138095019302	84.79045567528847	85.0148621787022	0	0
28.51999999999948	-2.759683929431519	-2.95882839047417	-84.05378592441976	0	0.9399999999999999	0	11.81297663659581	-1.926287149741366	-12.45352564271617	6.034916395806404	0.1053291611894111	0	0	0	5.944559816038332	-11.51186649437167	-8.226677276606106	49.78924084238527	0.868986184768058	0	0	0	0	0	0	43.43201339711436	-43.43201339711435	4.985207708480047	84.79143719604957	85.01479256524648	0	0	43.43201339711436	-43.43201339711435	4.985207708480047	84.79143719604957	85.01479256524398	0	0
28.53999999999948	-2.696440470093281	-2.942115434102556	-84.22622624502766	0	0.9399999999999999	0	10.82032254824622	-1.33387752592854	-12.46676139062889	5.100344970428901	0.08901781272151715	0	0	0	7.121092630805893	-11.29316702905906	-10.94703559968289	50.49504268491761	0.88130475078689	0	0	0	0	0	0	43.43414978063992	-43.43414978063991	4.985243119163925	84.7919364719324	85.01475715456388	0	0	43.43414978063992	-43.43414978063991	4.985243119163925	84.7919364719324	85.01475715456139	0	0
28.55999999999948	-2.537325164047388	-2.887355691128578	-84.41914897987198	0	0.9399999999999999	0	9.614055475674329	-0.9455977573082989	-13.08672649043953	5.881718043558047	0.1026553455340472	0	0	0	8.23999737800056	-11.4257102283939	-13.2528756833725	49.85835914620785	0.8701925267431557	0	0	0	0	0	0	43.44265160544949	-43.44265160544948	4.985380013065609	84.79386661800451	85.01462026066713	0	0	43.44265160544949	-43.44265160544948	4.985380013065609	84.79386661800451	85.01462026066467	0	0
28.57999999999948	-2.297725077905095	-2.880699770041546	-84.62517852498605	0	0.9399999999999999	0	8.241134662780391	-0.5131438831613263	-13.48996149046156	4.64074425945529	0.08099626707052079	0	0	0	9.338238580975958	-11.25049722584744	-14.62973009200453	49.02268355374679	0.8556072361761561	0	0	0	0	0	0	43.44104560192137	-43.44104560192137	4.9853543392445	84.79350462797194	85.01464593448733	0	0	43.44104560192137	-43.44104560192137	4.9853543392445	84.79350462797194	85.01464593448486	0	0
28.59999999999948	-2.185213516999118	-2.901581332273918	-84.71292603975131	0	0.9399999999999999	0	6.885131095421666	-0.005444347284012944	-13.82151937823856	3.467031981244063	0.06051112334465119	0	0	0	10.23027495727143	-10.60909687472938	-14.94687427796485	47.21800485175437	0.8241096508857707	0	0	0	0	0	0	43.44151331216514	-43.44151331216514	4.985363130826838	84.79362858584129	85.01463714290531	0	0	43.44151331216514	-43.44151331216514	4.985363130826838	84.79362858584129	85.01463714290286	0	0
28.61999999999948	-1.968025431780007	-2.925329555414512	-84.94228184850917	0	0.9399999999999999	0	5.466163527901516	0.3760807388370485	-14.18382120126205	2.716105938990554	0.0474049914683574	0	0	0	10.12509039274866	-10.44095078921388	-15.23852266434108	47.15827089638346	0.8230670966893091	0	0	0	0	0	0	43.44196440390176	-43.44196440390175	4.985371665443351	84.79374892060379	85.01462860828914	0	0	43.44196440390176	-43.44196440390175	4.985371665443351	84.79374892060379	85.01462860828667	0	0
28.63999999999948	-1.796985960197922	-2.91887108901307	-85.20553611072873	0	0.9399999999999999	0	4.274822084365944	0.785107505205491	-14.21639458357919	1.829138602270927	0.0319244910849547	0	0	0	11.63765631151731	-9.206213437683711	-13.55424263490566	41.28767407245895	0.7206058530547045	0	0	0	0	0	0	43.44629421504411	-43.4462942150441	4.985442300531651	84.7947448456508	85.0145579732034	0	0	43.44629421504411	-43.4462942150441	4.985442300531651	84.7947448456508	85.01455797320098	0	0
28.65999999999948	-1.665870944962951	-2.902672645010886	-85.51003806553884	0	0.9399999999999999	0	4.257911298310058	0.6721259688388198	-13.98302024812554	1.947767817055748	0.03399496147200537	0	0	0	13.12808649335247	-8.040490339143036	-10.85811701883558	38.4857649680204	0.6717033138406461	0	0	0	0	0	0	43.45044380712702	-43.45044380712701	4.985510793801925	84.79571057213288	85.01448947993558	0	0	43.45044380712702	-43.45044380712701	4.985510793801925	84.79571057213288	85.01448947993318	0	0
28.67999999999948	-1.588588355092339	-2.798042669329352	-85.85867008705748	0	0.9399999999999999	0	4.318346641268099	0.6212029118412236	-13.74926973343626	2.203067370729134	0.03845077926247793	0	0	0	14.42583343908931	-6.946786550326881	-9.916518974925737	35.18211302968438	0.6140437101767899	0	0	0	0	0	0	43.45463205903194	-43.45463205903194	4.985578555784163	84.79666598746367	85.01442171795571	0	0	43.45463205903194	-43.45463205903194	4.985578555784163	84.79666598746367	85.01442171795337	0	0
28.69999999999948	-1.539901857388083	-2.696294161830837	-86.27184308231131	0	0.9399999999999999	0	2.537501209858524	1.611877890854009	-13.33756741583344	0.787444286978486	0.01374349548379369	0	0	0	15.53250632718383	-6.223318298899934	-9.216851929910707	31.63869716443324	0.5521994365607538	0	0	0	0	0	0	43.45307562839572	-43.45307562839571	4.98555616229501	84.79635024928844	85.01444411144409	0	0	43.45307562839572	-43.45307562839571	4.98555616229501	84.79635024928844	85.01444411144173	0	0
28.71999999999948	-1.472660692325236	-2.38894368136998	-87.1379678720575	0	0.9399999999999999	0	2.161226631274427	1.964694451073734	-12.30686968317574	0.6781927008514921	0.01183669559285149	0	0	0	16.54164135193804	-5.651330420228978	-9.202146246498398	27.87300593271435	0.4864757259537785	0	0	0	0	0	0	43.45371821811084	-43.45371821811084	4.985568216045906	84.79652020243796	85.01443205769371	0	0	43.45371821811084	-43.45371821811084	4.985568216045906	84.79652020243796	85.01443205769135	0	0
28.73999999999948	-1.442026642195434	-2.335043742629395	-87.36671684159741	0	0.9399999999999999	0	2.211313469420724	1.924961058167199	-12.06294851488125	1.433025700436702	0.02501101673831839	0	0	0	17.04829257127203	-4.979883941611114	-9.385055221388356	23.92793925188323	0.4176213231625511	0	0	0	0	0	0	43.45440769764564	-43.45440769764564	4.985581104567674	84.79670192551937	85.01441916917248	0	0	43.45440769764564	-43.45440769764564	4.985581104567674	84.79670192551937	85.01441916917013	0	0
28.75999999999948	-1.398626627919506	-2.172349233297204	-87.77884862236814	0	0.9399999999999999	0	2.351790684415394	1.866123529123292	-11.65803282914707	2.115825511145284	0.03692812156717718	0	0	0	17.34165004836401	-4.230198664840159	-10.25831025239594	19.70040482309464	0.3438369281387725	0	0	0	0	0	0	43.45508844116125	-43.45508844116124	4.985593794989034	84.79688085545499	85.01440647875168	0	0	43.45508844116125	-43.45508844116124	4.985593794989034	84.79688085545499	85.01440647874932	0	0
28.77999999999948	-1.393645648532604	-1.837015500291352	-88.27393637516658	0	0.9399999999999999	0	2.613324715494437	1.812939281113506	-11.3212953462296	3.229057623989716	0.05635768727524558	0	0	0	17.72715784686833	-3.493595232032675	-11.22647013132443	15.69426703795197	0.2739166334994798	0	0	0	0	0	0	43.45562155897164	-43.45562155897164	4.98560368958781	84.79702036538656	85.01439658415326	0	0	43.45562155897164	-43.45562155897164	4.98560368958781	84.79702036538656	85.01439658415092	0	0
28.79999999999947	-1.415681298926491	-1.711574772654414	-88.37334955497374	0	0.9399999999999999	0	2.714026051561303	1.816972353468857	-11.32635363668782	3.886642218672113	0.06783470356284579	0	0	0	17.91465878162486	-2.761055613422628	-11.0965440890319	11.90082092304245	0.2077085087973215	0	0	0	0	0	0	43.45625350751695	-43.45625350751694	4.985615478138647	84.79718657930421	85.01438479560277	0	0	43.45625350751695	-43.45625350751694	4.985615478138647	84.79718657930421	85.01438479560041	0	0
28.81999999999947	-1.468914048487297	-1.489418122003132	-88.69862614413601	0	0.9399999999999999	0	2.912409511502596	1.847414778355375	-11.04439302338963	4.25899572735311	0.07433349827068249	0	0	0	17.67701670291983	-1.938831073139885	-12.45891712687896	8.221823347454311	0.1434978879304195	0	0	0	0	0	0	43.45683001693182	-43.45683001693181	4.985626260015165	84.79733859951472	85.01437401372664	0	0	43.45683001693182	-43.45683001693181	4.985626260015165	84.79733859951472	85.01437401372428	0	0
28.83999999999947	-1.599726941615887	-1.425368007411228	-89.10957438556439	0	0.9399999999999999	0	-0.7074411471075507	4.050523931660591	-9.81431581293651	1.096435615000208	0.01913641151788256	0	0	0	17.3638144824712	-1.476124789710201	-13.46148129801969	4.777317568114812	0.08337992097697194	0	0	0	0	0	0	43.44089061507515	-43.44089061507515	4.985377888158571	84.79383666319211	85.01462238557438	0	0	43.44089061507515	-43.44089061507515	4.985377888158571	84.79383666319211	85.01462238557203	0	0
